<?xml version="1.0" encoding="UTF-8" standalone="no"?>
<!-- Created with Inkscape (http://www.inkscape.org/) -->

<svg
   height="512pt"
   id="svg12042"
   inkscape:version="1.4.2 (ebf0e940d0, 2025-05-08)"
   sodipodi:docname="bee.svg"
   sodipodi:version="0.32"
   version="1.0"
   width="512pt"
   xmlns:inkscape="http://www.inkscape.org/namespaces/inkscape"
   xmlns:sodipodi="http://sodipodi.sourceforge.net/DTD/sodipodi-0.dtd"
   xmlns:xlink="http://www.w3.org/1999/xlink"
   xmlns="http://www.w3.org/2000/svg"
   xmlns:svg="http://www.w3.org/2000/svg"
   xmlns:rdf="http://www.w3.org/1999/02/22-rdf-syntax-ns#"
   xmlns:cc="http://creativecommons.org/ns#"
   xmlns:dc="http://purl.org/dc/elements/1.1/">
  <metadata
     id="metadata1">
    <rdf:RDF>
      <cc:Work
         rdf:about="">
        <dc:title>Bee</dc:title>
        <dc:description />
        <dc:subject>
          <rdf:Bag>
            <rdf:li>animals</rdf:li>
            <rdf:li>bugs</rdf:li>
            <rdf:li>bee</rdf:li>
          </rdf:Bag>
        </dc:subject>
        <dc:creator>
          <cc:Agent>
            <dc:title>Aurore D. (Rore)</dc:title>
          </cc:Agent>
        </dc:creator>
        <dc:rights>
          <cc:Agent>
            <dc:title />
          </cc:Agent>
        </dc:rights>
        <dc:date />
        <dc:format>image/svg+xml</dc:format>
        <dc:type
           rdf:resource="http://purl.org/dc/dcmitype/StillImage" />
        <dc:language>en</dc:language>
        <dc:publisher>
          <cc:Agent>
            <dc:title>Inkscape</dc:title>
          </cc:Agent>
        </dc:publisher>
        <cc:license
           rdf:resource="http://creativecommons.org/publicdomain/zero/1.0/" />
      </cc:Work>
      <cc:License
         rdf:about="http://creativecommons.org/publicdomain/zero/1.0/">
        <cc:permits
           rdf:resource="http://creativecommons.org/ns#Reproduction" />
        <cc:permits
           rdf:resource="http://creativecommons.org/ns#Distribution" />
        <cc:permits
           rdf:resource="http://creativecommons.org/ns#DerivativeWorks" />
      </cc:License>
    </rdf:RDF>
  </metadata>
  <sodipodi:namedview
     bordercolor="#666666"
     borderopacity="1.0"
     id="base"
     inkscape:current-layer="svg12042"
     inkscape:cx="372.35552"
     inkscape:cy="527.40192"
     inkscape:pageopacity="0.0"
     inkscape:pageshadow="2"
     inkscape:window-height="774"
     inkscape:window-width="1144"
     inkscape:window-x="26"
     inkscape:window-y="23"
     inkscape:zoom="0.40955482"
     pagecolor="#ffffff"
     inkscape:showpageshadow="2"
     inkscape:pagecheckerboard="0"
     inkscape:deskcolor="#d1d1d1"
     inkscape:document-units="pt"
     inkscape:window-maximized="0" />
  <defs
     id="defs12044">
    <linearGradient
       id="linearGradient42821">
      <stop
         id="stop42823"
         offset="0"
         style="stop-color:#e1d1a4;stop-opacity:1" />
      <stop
         id="stop42829"
         offset="0.65909094"
         style="stop-color:#e1d1a4;stop-opacity:1" />
      <stop
         id="stop42825"
         offset="1"
         style="stop-color:#9e8a61;stop-opacity:1" />
    </linearGradient>
    <linearGradient
       id="linearGradient41938">
      <stop
         id="stop41940"
         offset="0"
         style="stop-color:#a27b3e;stop-opacity:1" />
      <stop
         id="stop41942"
         offset="1"
         style="stop-color:#e1d1a4;stop-opacity:1" />
    </linearGradient>
    <linearGradient
       id="linearGradient21711">
      <stop
         id="stop21713"
         offset="0"
         style="stop-color:#8d5400;stop-opacity:1" />
      <stop
         id="stop21715"
         offset="1"
         style="stop-color:#ffbb00;stop-opacity:1" />
    </linearGradient>
    <linearGradient
       id="linearGradient19072">
      <stop
         id="stop19074"
         offset="0"
         style="stop-color:#000000;stop-opacity:1" />
      <stop
         id="stop19076"
         offset="1"
         style="stop-color:#000000;stop-opacity:0" />
    </linearGradient>
    <linearGradient
       id="linearGradient12925">
      <stop
         id="stop12927"
         offset="0"
         style="stop-color:#ffc300;stop-opacity:1" />
      <stop
         id="stop12933"
         offset="0.28977272"
         style="stop-color:#000000;stop-opacity:1" />
      <stop
         id="stop12939"
         offset="0.28977272"
         style="stop-color:#7f5c00;stop-opacity:1" />
      <stop
         id="stop12935"
         offset="0.75"
         style="stop-color:#ffb800;stop-opacity:1" />
      <stop
         id="stop12937"
         offset="0.875"
         style="stop-color:#000000;stop-opacity:1" />
      <stop
         id="stop12929"
         offset="1"
         style="stop-color:#ffcb00;stop-opacity:1" />
    </linearGradient>
    <linearGradient
       gradientUnits="userSpaceOnUse"
       id="linearGradient19078"
       x1="93.444183"
       x2="94.444191"
       xlink:href="#linearGradient19072"
       y1="234.64879"
       y2="281.84036" />
    <linearGradient
       gradientUnits="userSpaceOnUse"
       id="linearGradient21717"
       x1="269.15112"
       x2="261.79648"
       xlink:href="#linearGradient21711"
       y1="320.45981"
       y2="262.0162" />
    <radialGradient
       cx="476.0235"
       cy="511.81183"
       fx="476.0235"
       fy="511.81183"
       gradientTransform="matrix(0.932141,-0.00683599,0.00246607,0.336268,31.00664,361.8875)"
       gradientUnits="userSpaceOnUse"
       id="radialGradient41946"
       r="104.48756"
       xlink:href="#linearGradient41938" />
    <radialGradient
       cx="425.66315"
       cy="421.40005"
       fx="425.66315"
       fy="421.40005"
       gradientTransform="matrix(0.517373,1.260615,-1.704809,0.699679,925.3226,-391.2223)"
       gradientUnits="userSpaceOnUse"
       id="radialGradient42827"
       r="92.5"
       xlink:href="#linearGradient42821" />
    <linearGradient
       gradientUnits="userSpaceOnUse"
       id="linearGradient4751"
       x1="93.444183"
       x2="94.444191"
       xlink:href="#linearGradient19072"
       y1="234.64879"
       y2="281.84036" />
    <linearGradient
       gradientUnits="userSpaceOnUse"
       id="linearGradient6532"
       x1="269.15112"
       x2="261.79648"
       xlink:href="#linearGradient21711"
       y1="320.45981"
       y2="262.0162" />
    <linearGradient
       gradientUnits="userSpaceOnUse"
       id="linearGradient6534"
       x1="93.444183"
       x2="94.444191"
       xlink:href="#linearGradient19072"
       y1="234.64879"
       y2="281.84036" />
  </defs>
  <g
     id="layer1"
     transform="matrix(0.89153871,0,0,0.93671736,4.6468422,-23.43594)">
    <g
       id="g6516"
       transform="matrix(2.397117,0,0,2.397117,-113.2924,-70.63247)">
      <path
         d="m 97.870954,173.50844 c 0,0 -8.571541,-15.2655 -15.672241,-21.71213 -6.76707,-6.14374 -22.468451,0 -22.468451,0"
         id="path20832"
         style="fill:none;fill-opacity:0.75;fill-rule:evenodd;stroke:#000000;stroke-width:5;stroke-linecap:butt;stroke-linejoin:miter;stroke-miterlimit:4;stroke-dasharray:none;stroke-opacity:1" />
      <path
         d="m 276.7818,100.29341 c 0,48.81554 -18.54269,88.38836 -41.41626,88.38836 -22.87357,0 -41.41626,-39.57282 -41.41626,-88.38836 0,-48.815543 18.54269,-88.38836 41.41626,-88.38836 22.87357,0 41.41626,39.572817 41.41626,88.38836 z"
         id="path13816"
         style="fill:#b5d1ff;fill-opacity:1;fill-rule:evenodd;stroke:#000000;stroke-width:5;stroke-linecap:round;stroke-miterlimit:4;stroke-dasharray:none;stroke-dashoffset:0;stroke-opacity:1"
         transform="rotate(48.724543,189.95018,112.79382)" />
      <path
         d="m 396.98994,244.24014 c 0,37.93665 -63.76875,68.69038 -142.4315,68.69038 -78.66275,0 -142.4315,-30.75373 -142.4315,-68.69038 0,-37.93665 63.76875,-68.69038 142.4315,-68.69038 78.66275,0 142.4315,30.75373 142.4315,68.69038 z"
         id="path12050"
         style="fill:url(#linearGradient6532);fill-opacity:1;fill-rule:evenodd;stroke:#000000;stroke-width:5;stroke-linecap:round;stroke-miterlimit:4;stroke-dasharray:none;stroke-dashoffset:0;stroke-opacity:1"
         transform="matrix(0.776964,0,0,0.964378,24.45071,6.174923)" />
      <path
         d="m 138.3909,192.72237 45.45686,-13.13198 c 16.16244,42.4264 3.59931,102.23275 -27.27412,114.14723 -13.3277,5.14334 -42.4264,-33.33503 -42.4264,-33.33503 z"
         id="path15570"
         style="fill:#000000;fill-opacity:1;fill-rule:evenodd;stroke:#000000;stroke-width:1px;stroke-linecap:butt;stroke-linejoin:miter;stroke-opacity:1" />
      <path
         d="m 193.94928,218.98633 c 0.008,30.13218 -22.38138,54.56367 -50.00255,54.56367 -27.62117,0 -50.010362,-24.43149 -50.00255,-54.56367 -0.0078,-30.13218 22.38138,-54.56367 50.00255,-54.56367 27.62117,0 50.01036,24.43149 50.00255,54.56367 z"
         id="path13814"
         style="fill:#ffbb00;fill-opacity:1;fill-rule:evenodd;stroke:#000000;stroke-width:5;stroke-linecap:round;stroke-miterlimit:4;stroke-dasharray:none;stroke-dashoffset:0;stroke-opacity:1"
         transform="translate(-32.32488)" />
      <path
         d="m 199.00005,305.85945 c 28.21698,-10.58137 53.53809,-85.86296 33.33504,-124.24876 l 43.43655,2.0203 c 23.23351,46.46702 4.04061,103.03556 -16.16244,121.21831 0,0 -28.14253,1.01015 -60.60915,1.01015 z"
         id="path16445"
         style="fill:#000000;fill-opacity:1;fill-rule:evenodd;stroke:#000000;stroke-width:1px;stroke-linecap:butt;stroke-linejoin:miter;stroke-opacity:1" />
      <path
         d="m 276.7818,100.29341 c 0,48.81554 -18.54269,88.38836 -41.41626,88.38836 -22.87357,0 -41.41626,-39.57282 -41.41626,-88.38836 0,-48.815543 18.54269,-88.38836 41.41626,-88.38836 22.87357,0 41.41626,39.572817 41.41626,88.38836 z"
         id="path14691"
         style="fill:#b5d1ff;fill-opacity:1;fill-rule:evenodd;stroke:#000000;stroke-width:5;stroke-linecap:round;stroke-miterlimit:4;stroke-dasharray:none;stroke-dashoffset:0;stroke-opacity:1"
         transform="rotate(68.018133,192.2836,144.61314)" />
      <path
         d="m 124.24876,211.91527 c 0.005,8.92984 -7.00658,16.17157 -15.65736,16.17157 -8.650782,0 -15.662254,-7.24173 -15.657365,-16.17157 -0.0049,-8.92984 7.006583,-16.17157 15.657365,-16.17157 8.65078,0 15.66225,7.24173 15.65736,16.17157 z"
         id="path14693"
         style="fill:#000017;fill-opacity:1;fill-rule:evenodd;stroke:#000000;stroke-width:1;stroke-linecap:round;stroke-miterlimit:4;stroke-dasharray:none;stroke-dashoffset:0;stroke-opacity:1"
         transform="matrix(0.718662,0,0,1,28.02554,-1.010153)" />
      <path
         d="m 124.24876,211.91527 c 0.005,8.92984 -7.00658,16.17157 -15.65736,16.17157 -8.650782,0 -15.662254,-7.24173 -15.657365,-16.17157 -0.0049,-8.92984 7.006583,-16.17157 15.657365,-16.17157 8.65078,0 15.66225,7.24173 15.65736,16.17157 z"
         id="path15568"
         style="fill:#000017;fill-opacity:1;fill-rule:evenodd;stroke:#000000;stroke-width:1;stroke-linecap:round;stroke-miterlimit:4;stroke-dasharray:none;stroke-dashoffset:0;stroke-opacity:1"
         transform="matrix(0.405679,0,0,0.910583,33.7284,10.36249)" />
      <path
         d="m 297.995,289.69702 c 15.53146,-15.53147 33.23184,-66.49146 12.12183,-86.87313 19.1929,5.05077 23.23351,35.35534 23.23351,35.35534 l 16.16244,11.11168 -19.1929,7.07107 c 0,0 -16.43851,29.0783 -32.32488,33.33504 z"
         id="path17320"
         style="fill:#000000;fill-opacity:1;fill-rule:evenodd;stroke:#000000;stroke-width:1px;stroke-linecap:butt;stroke-linejoin:miter;stroke-opacity:1" />
      <path
         d="m 67.68022,243.22999 c 0,0 39.39595,20.20305 66.67007,-14.14213 -10.65634,43.0431 -55.558391,31.31473 -55.558391,31.31473 z"
         id="path18197"
         style="fill:url(#linearGradient6534);fill-opacity:1;fill-rule:evenodd;stroke:#000000;stroke-width:1px;stroke-linecap:butt;stroke-linejoin:miter;stroke-opacity:1" />
      <path
         d="m 69.700528,139.18428 c 0,3.34735 -2.261304,6.06092 -5.050763,6.06092 -2.789459,0 -5.050763,-2.71357 -5.050763,-6.06092 0,-3.34735 2.261304,-6.06092 5.050763,-6.06092 2.789459,0 5.050763,2.71357 5.050763,6.06092 z"
         id="path19080"
         style="fill:#ffffff;fill-opacity:1;fill-rule:evenodd;stroke:#000000;stroke-width:1;stroke-linecap:round;stroke-miterlimit:4;stroke-dasharray:none;stroke-dashoffset:0;stroke-opacity:1"
         transform="translate(43.43656,64.64976)" />
      <path
         d="m 69.700528,139.18428 c 0,3.34735 -2.261304,6.06092 -5.050763,6.06092 -2.789459,0 -5.050763,-2.71357 -5.050763,-6.06092 0,-3.34735 2.261304,-6.06092 5.050763,-6.06092 2.789459,0 5.050763,2.71357 5.050763,6.06092 z"
         id="path19955"
         style="fill:#ffffff;fill-opacity:1;fill-rule:evenodd;stroke:#000000;stroke-width:1;stroke-linecap:round;stroke-miterlimit:4;stroke-dasharray:none;stroke-dashoffset:0;stroke-opacity:1"
         transform="matrix(0.636044,0,0,0.729457,37.67176,93.97131)" />
      <path
         d="m 129.29953,185.6513 c 0,0 -12.85726,-35.97978 -19.95796,-42.42641 -6.76707,-6.14374 -22.468451,0 -22.468451,0"
         id="path19957"
         style="fill:none;fill-opacity:0.75;fill-rule:evenodd;stroke:#000000;stroke-width:5;stroke-linecap:butt;stroke-linejoin:miter;stroke-miterlimit:4;stroke-dasharray:none;stroke-opacity:1" />
    </g>
  </g>
</svg>
